<svg xmlns="http://www.w3.org/2000/svg" viewBox="0 0 264 60" width="264" height="60" shape-rendering="crispEdges" role="img" aria-label="Email"><title>Email</title><defs></defs><style>.nd{animation:nd 1s steps(1) infinite}@keyframes nd{0%{transform:translateX(0)}50%{transform:translateX(4px)}}</style><path d="M8 4h248v4h4v44h-4v4h-248v-4h-4v-44h4z" fill="#7d3a50"/><rect x="8" y="4" width="248" height="4" fill="#7d3a50"/><rect x="8" y="52" width="248" height="4" fill="#7d3a50"/><rect x="4" y="8" width="4" height="44" fill="#7d3a50"/><rect x="256" y="8" width="4" height="44" fill="#7d3a50"/><rect x="8" y="8" width="4" height="4" fill="#7d3a50"/><rect x="252" y="8" width="4" height="4" fill="#7d3a50"/><rect x="8" y="48" width="4" height="4" fill="#7d3a50"/><rect x="252" y="48" width="4" height="4" fill="#7d3a50"/><path d="M4 0h248v4h4v44h-4v4h-248v-4h-4v-44h4z" fill="#0d1130"/><rect x="4" y="0" width="248" height="4" fill="#d98aa0"/><rect x="4" y="48" width="248" height="4" fill="#d98aa0"/><rect x="0" y="4" width="4" height="44" fill="#d98aa0"/><rect x="252" y="4" width="4" height="44" fill="#d98aa0"/><rect x="4" y="4" width="4" height="4" fill="#d98aa0"/><rect x="248" y="4" width="4" height="4" fill="#d98aa0"/><rect x="4" y="44" width="4" height="4" fill="#d98aa0"/><rect x="248" y="44" width="4" height="4" fill="#d98aa0"/><path d="M16 10h24v4h4v24h-4v4h-24v-4h-4v-24h4z" fill="#d98aa0"/><rect x="16" y="10" width="24" height="4" fill="#d98aa0"/><rect x="16" y="38" width="24" height="4" fill="#d98aa0"/><rect x="12" y="14" width="4" height="24" fill="#d98aa0"/><rect x="40" y="14" width="4" height="24" fill="#d98aa0"/><rect x="16" y="14" width="4" height="4" fill="#d98aa0"/><rect x="36" y="14" width="4" height="4" fill="#d98aa0"/><rect x="16" y="34" width="4" height="4" fill="#d98aa0"/><rect x="36" y="34" width="4" height="4" fill="#d98aa0"/><rect x="16" y="14" width="24" height="3" fill="#0d1130"/><rect x="16" y="17" width="6" height="3" fill="#0d1130"/><rect x="34" y="17" width="6" height="3" fill="#0d1130"/><rect x="16" y="20" width="3" height="3" fill="#0d1130"/><rect x="22" y="20" width="3" height="3" fill="#0d1130"/><rect x="31" y="20" width="3" height="3" fill="#0d1130"/><rect x="37" y="20" width="3" height="3" fill="#0d1130"/><rect x="16" y="23" width="3" height="3" fill="#0d1130"/><rect x="25" y="23" width="6" height="3" fill="#0d1130"/><rect x="37" y="23" width="3" height="3" fill="#0d1130"/><rect x="16" y="26" width="3" height="3" fill="#0d1130"/><rect x="37" y="26" width="3" height="3" fill="#0d1130"/><rect x="16" y="29" width="3" height="3" fill="#0d1130"/><rect x="37" y="29" width="3" height="3" fill="#0d1130"/><rect x="16" y="32" width="24" height="3" fill="#0d1130"/><path d="M56 15h15v3h-15zM74 15h3v3h-3zM86 15h3v3h-3zM95 15h9v3h-9zM113 15h9v3h-9zM128 15h3v3h-3zM56 18h3v3h-3zM74 18h6v3h-6zM83 18h6v3h-6zM92 18h3v3h-3zM104 18h3v3h-3zM116 18h3v3h-3zM128 18h3v3h-3zM56 21h3v3h-3zM74 21h3v3h-3zM80 21h3v3h-3zM86 21h3v3h-3zM92 21h3v3h-3zM104 21h3v3h-3zM116 21h3v3h-3zM128 21h3v3h-3zM56 24h12v3h-12zM74 24h3v3h-3zM80 24h3v3h-3zM86 24h3v3h-3zM92 24h15v3h-15zM116 24h3v3h-3zM128 24h3v3h-3zM56 27h3v3h-3zM74 27h3v3h-3zM86 27h3v3h-3zM92 27h3v3h-3zM104 27h3v3h-3zM116 27h3v3h-3zM128 27h3v3h-3zM56 30h3v3h-3zM74 30h3v3h-3zM86 30h3v3h-3zM92 30h3v3h-3zM104 30h3v3h-3zM116 30h3v3h-3zM128 30h3v3h-3zM56 33h15v3h-15zM74 33h3v3h-3zM86 33h3v3h-3zM92 33h3v3h-3zM104 33h3v3h-3zM113 33h9v3h-9zM128 33h15v3h-15z" fill="#f1f4fb" /><g class="nd"><path d="M229 15h3v3h-3zM232 18h3v3h-3zM235 21h3v3h-3zM238 24h3v3h-3zM235 27h3v3h-3zM232 30h3v3h-3zM229 33h3v3h-3z" fill="#d98aa0" /></g></svg>